# xmcd CD database file
#
# Track frame offsets:
#	150
#	11240
#	28570
#	47410
#	64875
#	81190
#	99855
#	118715
#	130810
#	143710
#	156255
#	172275
#	187755
#	207835
#	245175
#	261465
#	277200
#	290550
#
# Disc length: 4099 seconds
#
# Revision: 2
# Processed by: cddbd v1.5.1PL0 Copyright (c) Steve Scherf et al.
# Submitted via: CDex 1.51
#
DISCID=11100112
DTITLE=Various Artist - ¹J¨£©¯ºÖ
DYEAR=2004
DGENRE=Jazz
TTITLE0=Bicycle (In Bicicletta)
TTITLE1=Just Wave Hello - Chrlotte Church
TTITLE2=One Voice - Billy Gilman
TTITLE3=Buongiorno Principessa - Mario Frangoulis
TTITLE4=Life - Des'ree
TTITLE5=Need To Be Next To You - Leigh Nash Of Sexpence None The Richer
TTITLE6=Cruising For Bruising - Basia
TTITLE7=Aux Champs-Elysees - Joe Dassin
TTITLE8=Walk On By - Aretha Franklin
TTITLE9=Our Live Is Here Stay - Andy Williams
TTITLE10=On The Sunny Side Of The Street - Louis Armstrong
TTITLE11=I'm A Fool To Want You - Billie Holiday
TTITLE12=Rainy Day and Mondays - Keiko Lee
TTITLE13=Someday My Prince Will Come - Dave Brubeck
TTITLE14=Where Have All The Flowers Gone - Brothers Four
TTITLE15=Don't Look Back - Youssou N'Dour
TTITLE16=Guitar Etude No.3 - Dan Fogelberg
TTITLE17=Remember When - ®]§Æ¹Å
EXTD=YEAR: 2004
EXTT0=
EXTT1=
EXTT2=
EXTT3=
EXTT4=
EXTT5=
EXTT6=
EXTT7=
EXTT8=
EXTT9=
EXTT10=
EXTT11=
EXTT12=
EXTT13=
EXTT14=
EXTT15=
EXTT16=
EXTT17=
PLAYORDER=
